<mxfile host="Electron" modified="2024-05-02T12:22:21.309Z" agent="Mozilla/5.0 (Windows NT 10.0; Win64; x64) AppleWebKit/537.36 (KHTML, like Gecko) draw.io/24.2.5 Chrome/120.0.6099.109 Electron/28.1.0 Safari/537.36" etag="o-EK-3wVbYa9A_9zJocO" version="24.2.5" type="device">
  <diagram id="C5RBs43oDa-KdzZeNtuy" name="Page-1">
    <mxGraphModel dx="993" dy="639" grid="1" gridSize="10" guides="1" tooltips="1" connect="1" arrows="1" fold="1" page="1" pageScale="1" pageWidth="827" pageHeight="1169" background="#ff66d6" math="0" shadow="0">
      <root>
        <mxCell id="WIyWlLk6GJQsqaUBKTNV-0" />
        <mxCell id="WIyWlLk6GJQsqaUBKTNV-1" parent="WIyWlLk6GJQsqaUBKTNV-0" />
        <mxCell id="jGoup7Fw8gT_dTfUn8MF-0" value="Start" style="ellipse;whiteSpace=wrap;html=1;fillColor=#b1ddf0;strokeColor=#10739e;" parent="WIyWlLk6GJQsqaUBKTNV-1" vertex="1">
          <mxGeometry x="318.13" y="40" width="81.25" height="50" as="geometry" />
        </mxCell>
        <mxCell id="jGoup7Fw8gT_dTfUn8MF-3" value="Van-e kapszula?" style="rhombus;whiteSpace=wrap;html=1;fontStyle=1;fillColor=#fad9d5;strokeColor=#ae4132;" parent="WIyWlLk6GJQsqaUBKTNV-1" vertex="1">
          <mxGeometry x="301.26" y="119" width="115" height="60" as="geometry" />
        </mxCell>
        <mxCell id="jGoup7Fw8gT_dTfUn8MF-5" value="" style="endArrow=classic;html=1;rounded=0;exitX=0.5;exitY=1;exitDx=0;exitDy=0;entryX=0.5;entryY=0;entryDx=0;entryDy=0;" parent="WIyWlLk6GJQsqaUBKTNV-1" source="jGoup7Fw8gT_dTfUn8MF-0" target="jGoup7Fw8gT_dTfUn8MF-3" edge="1">
          <mxGeometry width="50" height="50" relative="1" as="geometry">
            <mxPoint x="380" y="290" as="sourcePoint" />
            <mxPoint x="380" y="140" as="targetPoint" />
          </mxGeometry>
        </mxCell>
        <mxCell id="jGoup7Fw8gT_dTfUn8MF-11" value="Kávékapszula vásárlása" style="rounded=0;whiteSpace=wrap;html=1;fillColor=#d0cee2;strokeColor=#56517e;" parent="WIyWlLk6GJQsqaUBKTNV-1" vertex="1">
          <mxGeometry x="440.63" y="130" width="119.37" height="40" as="geometry" />
        </mxCell>
        <mxCell id="jGoup7Fw8gT_dTfUn8MF-12" value="" style="endArrow=classic;html=1;rounded=0;exitX=1;exitY=0.5;exitDx=0;exitDy=0;entryX=0;entryY=0.5;entryDx=0;entryDy=0;" parent="WIyWlLk6GJQsqaUBKTNV-1" source="jGoup7Fw8gT_dTfUn8MF-3" target="jGoup7Fw8gT_dTfUn8MF-11" edge="1">
          <mxGeometry width="50" height="50" relative="1" as="geometry">
            <mxPoint x="350" y="240" as="sourcePoint" />
            <mxPoint x="430" y="240" as="targetPoint" />
          </mxGeometry>
        </mxCell>
        <mxCell id="jGoup7Fw8gT_dTfUn8MF-15" value="Tegyünk vizet a kávégépbe" style="rounded=0;whiteSpace=wrap;html=1;fillColor=#d0cee2;strokeColor=#56517e;" parent="WIyWlLk6GJQsqaUBKTNV-1" vertex="1">
          <mxGeometry x="299.08" y="204" width="119.37" height="40" as="geometry" />
        </mxCell>
        <mxCell id="jGoup7Fw8gT_dTfUn8MF-17" value="Tegyük be a kapszulát a kávégépbe" style="rounded=0;whiteSpace=wrap;html=1;fillColor=#d0cee2;strokeColor=#56517e;" parent="WIyWlLk6GJQsqaUBKTNV-1" vertex="1">
          <mxGeometry x="299.07" y="268" width="119.37" height="40" as="geometry" />
        </mxCell>
        <mxCell id="jGoup7Fw8gT_dTfUn8MF-20" value="" style="endArrow=classic;html=1;rounded=0;exitX=0.5;exitY=1;exitDx=0;exitDy=0;entryX=0.5;entryY=0;entryDx=0;entryDy=0;" parent="WIyWlLk6GJQsqaUBKTNV-1" source="jGoup7Fw8gT_dTfUn8MF-15" target="jGoup7Fw8gT_dTfUn8MF-17" edge="1">
          <mxGeometry width="50" height="50" relative="1" as="geometry">
            <mxPoint x="380" y="300" as="sourcePoint" />
            <mxPoint x="430" y="250" as="targetPoint" />
          </mxGeometry>
        </mxCell>
        <mxCell id="jGoup7Fw8gT_dTfUn8MF-27" value="" style="endArrow=classic;html=1;rounded=0;exitX=0.5;exitY=1;exitDx=0;exitDy=0;entryX=0.5;entryY=0;entryDx=0;entryDy=0;" parent="WIyWlLk6GJQsqaUBKTNV-1" source="jGoup7Fw8gT_dTfUn8MF-30" target="jGoup7Fw8gT_dTfUn8MF-15" edge="1">
          <mxGeometry width="50" height="50" relative="1" as="geometry">
            <mxPoint x="380" y="300" as="sourcePoint" />
            <mxPoint x="430" y="250" as="targetPoint" />
          </mxGeometry>
        </mxCell>
        <mxCell id="jGoup7Fw8gT_dTfUn8MF-28" value="Kapcsoljuk be a kávégépet" style="rounded=0;whiteSpace=wrap;html=1;fillColor=#d0cee2;strokeColor=#56517e;" parent="WIyWlLk6GJQsqaUBKTNV-1" vertex="1">
          <mxGeometry x="299.08" y="333" width="119.37" height="40" as="geometry" />
        </mxCell>
        <mxCell id="jGoup7Fw8gT_dTfUn8MF-29" value="" style="endArrow=classic;html=1;rounded=0;exitX=0.5;exitY=1;exitDx=0;exitDy=0;entryX=0.5;entryY=0;entryDx=0;entryDy=0;" parent="WIyWlLk6GJQsqaUBKTNV-1" source="jGoup7Fw8gT_dTfUn8MF-17" target="jGoup7Fw8gT_dTfUn8MF-28" edge="1">
          <mxGeometry width="50" height="50" relative="1" as="geometry">
            <mxPoint x="380" y="300" as="sourcePoint" />
            <mxPoint x="430" y="250" as="targetPoint" />
          </mxGeometry>
        </mxCell>
        <mxCell id="jGoup7Fw8gT_dTfUn8MF-30" value="" style="ellipse;whiteSpace=wrap;html=1;aspect=fixed;" parent="WIyWlLk6GJQsqaUBKTNV-1" vertex="1">
          <mxGeometry x="353.75" y="180" width="10" height="10" as="geometry" />
        </mxCell>
        <mxCell id="DXp4zR-Xfu0GI9nuhv3s-2" value="" style="endArrow=classic;html=1;rounded=0;entryX=1;entryY=0.5;entryDx=0;entryDy=0;exitX=0.5;exitY=1;exitDx=0;exitDy=0;" edge="1" parent="WIyWlLk6GJQsqaUBKTNV-1" source="jGoup7Fw8gT_dTfUn8MF-11" target="jGoup7Fw8gT_dTfUn8MF-30">
          <mxGeometry width="50" height="50" relative="1" as="geometry">
            <mxPoint x="500" y="185" as="sourcePoint" />
            <mxPoint x="380" y="190" as="targetPoint" />
            <Array as="points">
              <mxPoint x="500" y="185" />
            </Array>
          </mxGeometry>
        </mxCell>
        <mxCell id="DXp4zR-Xfu0GI9nuhv3s-5" value="" style="endArrow=classic;html=1;rounded=0;exitX=0.5;exitY=1;exitDx=0;exitDy=0;" edge="1" parent="WIyWlLk6GJQsqaUBKTNV-1" source="DXp4zR-Xfu0GI9nuhv3s-6">
          <mxGeometry width="50" height="50" relative="1" as="geometry">
            <mxPoint x="360" y="320" as="sourcePoint" />
            <mxPoint x="359" y="400" as="targetPoint" />
          </mxGeometry>
        </mxCell>
        <mxCell id="DXp4zR-Xfu0GI9nuhv3s-7" value="" style="endArrow=classic;html=1;rounded=0;exitX=0.5;exitY=1;exitDx=0;exitDy=0;" edge="1" parent="WIyWlLk6GJQsqaUBKTNV-1" source="jGoup7Fw8gT_dTfUn8MF-28" target="DXp4zR-Xfu0GI9nuhv3s-6">
          <mxGeometry width="50" height="50" relative="1" as="geometry">
            <mxPoint x="359" y="373" as="sourcePoint" />
            <mxPoint x="359" y="400" as="targetPoint" />
          </mxGeometry>
        </mxCell>
        <mxCell id="DXp4zR-Xfu0GI9nuhv3s-6" value="" style="ellipse;whiteSpace=wrap;html=1;aspect=fixed;" vertex="1" parent="WIyWlLk6GJQsqaUBKTNV-1">
          <mxGeometry x="353.75" y="373" width="10" height="10" as="geometry" />
        </mxCell>
        <mxCell id="DXp4zR-Xfu0GI9nuhv3s-9" value="Várj" style="rounded=0;whiteSpace=wrap;html=1;fillColor=#d0cee2;strokeColor=#56517e;" vertex="1" parent="WIyWlLk6GJQsqaUBKTNV-1">
          <mxGeometry x="299.08" y="400" width="119.37" height="40" as="geometry" />
        </mxCell>
        <mxCell id="DXp4zR-Xfu0GI9nuhv3s-10" value="" style="endArrow=classic;html=1;rounded=0;exitX=0.5;exitY=1;exitDx=0;exitDy=0;" edge="1" parent="WIyWlLk6GJQsqaUBKTNV-1" source="DXp4zR-Xfu0GI9nuhv3s-9">
          <mxGeometry width="50" height="50" relative="1" as="geometry">
            <mxPoint x="360" y="330" as="sourcePoint" />
            <mxPoint x="359" y="470" as="targetPoint" />
          </mxGeometry>
        </mxCell>
        <mxCell id="DXp4zR-Xfu0GI9nuhv3s-12" value="Forr a víz?" style="rhombus;whiteSpace=wrap;html=1;fillColor=#fad9d5;strokeColor=#ae4132;" vertex="1" parent="WIyWlLk6GJQsqaUBKTNV-1">
          <mxGeometry x="301.26" y="470" width="115" height="60" as="geometry" />
        </mxCell>
        <mxCell id="DXp4zR-Xfu0GI9nuhv3s-13" value="" style="endArrow=classic;html=1;rounded=0;exitX=0.5;exitY=1;exitDx=0;exitDy=0;" edge="1" parent="WIyWlLk6GJQsqaUBKTNV-1" source="DXp4zR-Xfu0GI9nuhv3s-12">
          <mxGeometry width="50" height="50" relative="1" as="geometry">
            <mxPoint x="370" y="450" as="sourcePoint" />
            <mxPoint x="360" y="560" as="targetPoint" />
          </mxGeometry>
        </mxCell>
        <mxCell id="DXp4zR-Xfu0GI9nuhv3s-20" value="" style="edgeStyle=orthogonalEdgeStyle;rounded=0;orthogonalLoop=1;jettySize=auto;html=1;" edge="1" parent="WIyWlLk6GJQsqaUBKTNV-1" source="DXp4zR-Xfu0GI9nuhv3s-15">
          <mxGeometry relative="1" as="geometry">
            <mxPoint x="359" y="630" as="targetPoint" />
          </mxGeometry>
        </mxCell>
        <mxCell id="DXp4zR-Xfu0GI9nuhv3s-15" value="Lefolyt a kávé!" style="rounded=0;whiteSpace=wrap;html=1;fillColor=#d0cee2;strokeColor=#56517e;" vertex="1" parent="WIyWlLk6GJQsqaUBKTNV-1">
          <mxGeometry x="299.08" y="560" width="119.37" height="40" as="geometry" />
        </mxCell>
        <mxCell id="DXp4zR-Xfu0GI9nuhv3s-16" value="Vegyük ki a bögrét!" style="rounded=0;whiteSpace=wrap;html=1;fillColor=#d0cee2;strokeColor=#56517e;" vertex="1" parent="WIyWlLk6GJQsqaUBKTNV-1">
          <mxGeometry x="299.08" y="630" width="119.37" height="40" as="geometry" />
        </mxCell>
        <mxCell id="DXp4zR-Xfu0GI9nuhv3s-22" value="" style="endArrow=classic;html=1;rounded=0;exitX=0.5;exitY=1;exitDx=0;exitDy=0;" edge="1" parent="WIyWlLk6GJQsqaUBKTNV-1" source="DXp4zR-Xfu0GI9nuhv3s-16">
          <mxGeometry width="50" height="50" relative="1" as="geometry">
            <mxPoint x="370" y="660" as="sourcePoint" />
            <mxPoint x="359" y="700" as="targetPoint" />
          </mxGeometry>
        </mxCell>
        <mxCell id="DXp4zR-Xfu0GI9nuhv3s-23" value="Igyuk meg a kávét!" style="rounded=0;whiteSpace=wrap;html=1;fillColor=#d0cee2;strokeColor=#56517e;" vertex="1" parent="WIyWlLk6GJQsqaUBKTNV-1">
          <mxGeometry x="299.06" y="700" width="119.37" height="40" as="geometry" />
        </mxCell>
        <mxCell id="DXp4zR-Xfu0GI9nuhv3s-24" value="Start" style="ellipse;whiteSpace=wrap;html=1;fillColor=#b1ddf0;strokeColor=#10739e;" vertex="1" parent="WIyWlLk6GJQsqaUBKTNV-1">
          <mxGeometry x="318.12" y="770" width="81.25" height="50" as="geometry" />
        </mxCell>
        <mxCell id="DXp4zR-Xfu0GI9nuhv3s-25" value="" style="endArrow=classic;html=1;rounded=0;exitX=0.5;exitY=1;exitDx=0;exitDy=0;entryX=0.5;entryY=0;entryDx=0;entryDy=0;" edge="1" parent="WIyWlLk6GJQsqaUBKTNV-1" source="DXp4zR-Xfu0GI9nuhv3s-23" target="DXp4zR-Xfu0GI9nuhv3s-24">
          <mxGeometry width="50" height="50" relative="1" as="geometry">
            <mxPoint x="370" y="580" as="sourcePoint" />
            <mxPoint x="420" y="530" as="targetPoint" />
          </mxGeometry>
        </mxCell>
        <mxCell id="DXp4zR-Xfu0GI9nuhv3s-26" value="" style="endArrow=classic;html=1;rounded=0;exitX=1;exitY=0.5;exitDx=0;exitDy=0;entryX=1;entryY=1;entryDx=0;entryDy=0;" edge="1" parent="WIyWlLk6GJQsqaUBKTNV-1" source="DXp4zR-Xfu0GI9nuhv3s-12" target="DXp4zR-Xfu0GI9nuhv3s-6">
          <mxGeometry width="50" height="50" relative="1" as="geometry">
            <mxPoint x="370" y="500" as="sourcePoint" />
            <mxPoint x="480" y="380" as="targetPoint" />
            <Array as="points">
              <mxPoint x="480" y="500" />
              <mxPoint x="480" y="382" />
            </Array>
          </mxGeometry>
        </mxCell>
      </root>
    </mxGraphModel>
  </diagram>
</mxfile>
